<?xml version="1.0" encoding="UTF-8" standalone="no"?>
<!-- Created with Inkscape (http://www.inkscape.org/) -->

<svg
   xmlns:dc="http://purl.org/dc/elements/1.1/"
   xmlns:cc="http://creativecommons.org/ns#"
   xmlns:rdf="http://www.w3.org/1999/02/22-rdf-syntax-ns#"
   xmlns:svg="http://www.w3.org/2000/svg"
   xmlns="http://www.w3.org/2000/svg"
   xmlns:sodipodi="http://sodipodi.sourceforge.net/DTD/sodipodi-0.dtd"
   xmlns:inkscape="http://www.inkscape.org/namespaces/inkscape"
   width="1000"
   height="1000"
   viewBox="0 0 1000 1000"
   id="svg2"
   version="1.1"
   inkscape:version="0.91 r13725"
   sodipodi:docname="bg.svg">
  <defs
     id="defs4" />
  <sodipodi:namedview
     id="base"
     pagecolor="#ffffff"
     bordercolor="#666666"
     borderopacity="1.0"
     inkscape:pageopacity="0.0"
     inkscape:pageshadow="2"
     inkscape:zoom="0.35"
     inkscape:cx="1507.5332"
     inkscape:cy="124.1351"
     inkscape:document-units="px"
     inkscape:current-layer="layer1"
     showgrid="false"
     units="px"
     showguides="false"
     showborder="false"
     inkscape:snap-page="true"
     inkscape:object-nodes="true"
     inkscape:window-width="1920"
     inkscape:window-height="1023"
     inkscape:window-x="0"
     inkscape:window-y="0"
     inkscape:window-maximized="1" />
  <metadata
     id="metadata7">
    <rdf:RDF>
      <cc:Work
         rdf:about="">
        <dc:format>image/svg+xml</dc:format>
        <dc:type
           rdf:resource="http://purl.org/dc/dcmitype/StillImage" />
        <dc:title></dc:title>
      </cc:Work>
    </rdf:RDF>
  </metadata>
  <g
     inkscape:label="Layer 1"
     inkscape:groupmode="layer"
     id="layer1"
     transform="translate(0,-52.362161)">
    <rect
       style="fill:#f9f9f9;fill-opacity:1;stroke:none;stroke-width:3.0999999;stroke-linecap:round;stroke-linejoin:round;stroke-miterlimit:4;stroke-dasharray:none;stroke-opacity:1"
       id="rect4136"
       width="1000"
       height="1000"
       x="0"
       y="52.36216" />
    <path
       style="fill:#fbfbfb;fill-opacity:1;stroke:none;stroke-width:1px;stroke-linecap:butt;stroke-linejoin:miter;stroke-opacity:1"
       d="m 0,613.79074 c 265.71429,-127.14286 701.42858,134.28572 1000,-1.42857 l 0,101.42857 c -342.29061,73.52912 -654.93564,-227.88459 -1000,-60 z"
       id="path4148"
       inkscape:connector-curvature="0"
       sodipodi:nodetypes="ccccc" />
    <path
       sodipodi:nodetypes="ccccc"
       inkscape:connector-curvature="0"
       id="path4142"
       d="M 0,479.50503 C 394.28572,648.07646 702.85715,266.64789 1000,435.21932 l 0,59.99999 C 666.28082,323.03415 249.35007,653.049 0,580.9336 Z"
       style="fill:#f6f6f6;fill-opacity:1;stroke:none;stroke-width:1px;stroke-linecap:butt;stroke-linejoin:miter;stroke-opacity:1" />
    <path
       style="fill:#fbfbfb;fill-opacity:1;stroke:none;stroke-width:1px;stroke-linecap:butt;stroke-linejoin:miter;stroke-opacity:1"
       d="m 0,507.21931 c 344.28572,42.85709 608.57143,-238.57143 1000,-90 l 0,138.57139 C 879.13796,347.89129 265.06436,505.04901 0,574.3622 Z"
       id="path4140"
       inkscape:connector-curvature="0"
       sodipodi:nodetypes="ccccc" />
    <path
       sodipodi:nodetypes="ccccc"
       inkscape:connector-curvature="0"
       id="path4144"
       d="m 0,467.21931 c 265.71429,-127.14286 701.42858,134.28572 1000,-1.42857 l 0,101.42857 c -342.29061,73.52912 -654.93564,-227.88459 -1000,-60 z"
       style="fill:#f6f6f6;fill-opacity:1;stroke:none;stroke-width:1px;stroke-linecap:butt;stroke-linejoin:miter;stroke-opacity:1" />
    <path
       style="fill:#f6f6f6;fill-opacity:1;stroke:none;stroke-width:1px;stroke-linecap:butt;stroke-linejoin:miter;stroke-opacity:1"
       d="M 0,709.50502 C 262.85715,605.21935 564.28572,482.36217 1000,645.21931 l 0,65.99999 C 637.70939,517.60557 272.20721,567.3347 0,770.93359 Z"
       id="path4146"
       inkscape:connector-curvature="0"
       sodipodi:nodetypes="ccccc" />
    <path
       style="fill:#f6f6f6;fill-opacity:1;stroke:none;stroke-width:1px;stroke-linecap:butt;stroke-linejoin:miter;stroke-opacity:1"
       d="m 0,175.79074 c 257.14286,82.85714 701.42858,134.28572 1000,-1.42857 l 0,101.42857 c -342.29061,73.52912 -703.50707,14.97255 -1000,-60 z"
       id="path4169"
       inkscape:connector-curvature="0"
       sodipodi:nodetypes="ccccc" />
    <path
       style="fill:#fbfbfb;fill-opacity:1;stroke:none;stroke-width:1px;stroke-linecap:butt;stroke-linejoin:miter;stroke-opacity:1"
       d="M 1000,275.79074 C 734.28571,148.64788 298.57142,410.07646 0,274.36217 l 0,101.42857 c 342.29061,73.52912 654.93564,-227.88459 1000,-60 z"
       id="path4171"
       inkscape:connector-curvature="0"
       sodipodi:nodetypes="ccccc" />
    <path
       style="fill:#f6f6f6;fill-opacity:1;stroke:none;stroke-width:1px;stroke-linecap:butt;stroke-linejoin:miter;stroke-opacity:1"
       d="M 0,363.21931 C 265.71429,236.07645 701.42858,470.07646 1000,334.36217 l 0,61.42857 C 657.70939,469.31986 345.06436,235.33472 0,403.21931 Z"
       id="path4173"
       inkscape:connector-curvature="0"
       sodipodi:nodetypes="ccccc" />
  </g>
</svg>
