<?xml version="1.0" encoding="UTF-8" standalone="no"?>
<svg
   xmlns:dc="http://purl.org/dc/elements/1.1/"
   xmlns:cc="http://creativecommons.org/ns#"
   xmlns:rdf="http://www.w3.org/1999/02/22-rdf-syntax-ns#"
   xmlns:svg="http://www.w3.org/2000/svg"
   xmlns="http://www.w3.org/2000/svg"
   xmlns:sodipodi="http://sodipodi.sourceforge.net/DTD/sodipodi-0.dtd"
   xmlns:inkscape="http://www.inkscape.org/namespaces/inkscape"
   width="2001.6938"
   height="2001.6938"
   viewBox="0 0 2001.6938 2001.6938"
   id="svg2"
   version="1.1"
   inkscape:version="0.91 r13725"
   sodipodi:docname="delete-from-list.svg">
  <metadata
     id="metadata10">
    <rdf:RDF>
      <cc:Work
         rdf:about="">
        <dc:format>image/svg+xml</dc:format>
        <dc:type
           rdf:resource="http://purl.org/dc/dcmitype/StillImage" />
        <dc:title />
      </cc:Work>
    </rdf:RDF>
  </metadata>
  <defs
     id="defs8" />
  <sodipodi:namedview
     pagecolor="#ffffff"
     bordercolor="#666666"
     borderopacity="1"
     objecttolerance="10"
     gridtolerance="10"
     guidetolerance="10"
     inkscape:pageopacity="0"
     inkscape:pageshadow="2"
     inkscape:window-width="1920"
     inkscape:window-height="1023"
     id="namedview6"
     showgrid="false"
     fit-margin-top="0"
     fit-margin-left="0"
     fit-margin-right="0"
     fit-margin-bottom="0"
     inkscape:zoom="0.18624688"
     inkscape:cx="-768.07866"
     inkscape:cy="514.34976"
     inkscape:window-x="0"
     inkscape:window-y="0"
     inkscape:window-maximized="1"
     inkscape:current-layer="svg2" />
  <path
     d="m 685.6939,1771.694 c 0,53.3332 -18.66667,98.6667 -56,136 -37.33333,37.3332 -82.66667,56 -136,56 -53.33333,0 -98.66667,-18.6668 -136,-56 -37.33333,-37.3333 -56,-82.6668 -56,-136 0,-53.3333 18.66667,-98.6667 56,-136 37.33333,-37.3333 82.66667,-56 136,-56 53.33333,0 98.66667,18.6667 136,56 37.33333,37.3333 56,82.6667 56,136 z"
     id="path4148"
     inkscape:connector-curvature="0"
     sodipodi:nodetypes="sssssssss"
     style="fill:#0288d1;fill-opacity:1" />
  <path
     d="m 685.6939,1259.6939 c 0,53.3333 -18.66667,98.6667 -56,136 -37.33333,37.3333 -82.66667,56 -136,56 -53.33333,0 -98.66667,-18.6667 -136,-56 -37.33333,-37.3333 -56,-82.6667 -56,-136 0,-53.3333 18.66667,-98.6667 56,-136 37.33333,-37.3333 82.66667,-56 136,-56 53.33333,0 98.66667,18.6667 136,56 37.33333,37.3333 56,82.6667 56,136 z"
     id="path4146"
     inkscape:connector-curvature="0"
     sodipodi:nodetypes="sssssssss"
     style="fill:#0288d1;fill-opacity:1" />
  <path
     d="m 2001.6939,1675.6939 0,192.0001 c 0,8.6667 -3.1667,16.1667 -9.5,22.5 -6.3333,6.3332 -13.8333,9.5 -22.5,9.5 l -1124,0 c -8.66667,0 -16.16667,-3.1668 -22.5,-9.5 -6.33333,-6.3333 -9.5,-13.8333 -9.5,-22.5 l 0,-192 c 0,-8.6667 3.16667,-16.1667 9.5,-22.5 6.33333,-6.3333 13.83333,-9.5 22.5,-9.5 l 1124,0 c 8.6667,0 16.1667,3.1667 22.5,9.5 6.3333,6.3333 9.5,13.8333 9.5,22.5 z"
     id="path4144"
     inkscape:connector-curvature="0"
     sodipodi:nodetypes="sssssssssssss"
     style="fill:#b3b3b3;fill-opacity:1" />
  <path
     d="m 2001.6939,1163.6939 0,192 c 0,8.6667 -3.1667,16.1667 -9.5,22.5 -6.3333,6.3333 -13.8333,9.5 -22.5,9.5 l -1124,0 c -8.66667,0 -16.16667,-3.1667 -22.5,-9.5 -6.33333,-6.3333 -9.5,-13.8333 -9.5,-22.5 l 0,-192 c 0,-8.6667 3.16667,-16.1667 9.5,-22.5 6.33333,-6.3333 13.83333,-9.5 22.5,-9.5 l 1124,0 c 8.6667,0 16.1667,3.1667 22.5,9.5 6.3333,6.3333 9.5,13.8333 9.5,22.5 z"
     id="path4140"
     inkscape:connector-curvature="0"
     sodipodi:nodetypes="sssssssssssss"
     style="fill:#b3b3b3;fill-opacity:1" />
  <path
     d="m 1797.6939,651.69385 0,192.00005 c 0,8.6666 -3.1667,16.1666 -9.5,22.5 -6.3333,6.3333 -13.8333,9.5 -22.5,9.5 l -1124,0 c -8.66667,0 -16.16667,-3.1667 -22.5,-9.5 -6.33333,-6.3334 -9.5,-13.8334 -9.5,-22.5 l 0,-192.00005 c 0,-8.66667 3.16667,-16.16667 9.5,-22.5 6.33333,-6.33333 13.83333,-9.5 22.5,-9.5 l 1124,0 c 8.6667,0 16.1667,3.16667 22.5,9.5 6.3333,6.33333 9.5,13.83333 9.5,22.5 z"
     id="path4"
     inkscape:connector-curvature="0"
     sodipodi:nodetypes="sssssssssssss"
     style="fill:#f44336;fill-opacity:1" />
  <path
     id="path4150"
     d="m 685.6939,235.69385 c 0,53.33333 -18.66667,98.66667 -56,136 -37.33333,37.33333 -82.66667,56 -136,56 -53.33333,0 -98.66667,-18.66667 -136,-56 -37.33333,-37.33333 -56,-82.66667 -56,-136 0,-53.33333 18.66667,-98.66667 56,-136 37.33333,-37.33333 82.66667,-56 136,-56 53.33333,0 98.66667,18.66667 136,56 37.33333,37.33333 56,82.66667 56,136 z"
     inkscape:connector-curvature="0"
     sodipodi:nodetypes="sssssssss"
     style="fill:#0288d1;fill-opacity:1" />
  <path
     id="path4152"
     d="m 2001.6939,139.69385 0,192 c 0,8.66667 -3.1667,16.16667 -9.5,22.5 -6.3333,6.33333 -13.8333,9.5 -22.5,9.5 l -1124,0 c -8.66667,0 -16.16667,-3.16667 -22.5,-9.5 -6.33333,-6.33333 -9.5,-13.83333 -9.5,-22.5 l 0,-192 c 0,-8.66667 3.16667,-16.16667 9.5,-22.5 6.33333,-6.33333 13.83333,-9.5 22.5,-9.5 l 1124,0 c 8.6667,0 16.1667,3.16667 22.5,9.5 6.3333,6.33333 9.5,13.83333 9.5,22.5 z"
     inkscape:connector-curvature="0"
     sodipodi:nodetypes="sssssssssssss"
     style="fill:#b3b3b3;fill-opacity:1" />
  <path
     id="path4872"
     d="m 539.46002,900.96247 q 0,16.835 -11.78452,28.6195 l -57.23908,57.23912 q -11.7845,11.7845 -28.61952,11.7845 -16.83502,0 -28.61952,-11.7845 L 289.46001,863.08372 165.72264,986.82109 q -11.7845,11.7845 -28.61952,11.7845 -16.83501,0 -28.61952,-11.7845 L 51.244531,929.58197 q -11.784511,-11.7845 -11.784511,-28.6195 0,-16.835 11.784511,-28.6195 L 174.98189,748.6056 51.244531,624.86823 q -11.784511,-11.7845 -11.784511,-28.6195 0,-16.835 11.784511,-28.6195 L 108.4836,510.3901 q 11.78451,-11.7845 28.61952,-11.7845 16.83502,0 28.61952,11.7845 L 289.46001,634.12749 413.19738,510.3901 q 11.7845,-11.7845 28.61952,-11.7845 16.83502,0 28.61952,11.7845 l 57.23908,57.23913 q 11.78452,11.7845 11.78452,28.6195 0,16.835 -11.78452,28.6195 L 403.93812,748.6056 527.6755,872.34297 q 11.78452,11.7845 11.78452,28.6195 z"
     inkscape:connector-curvature="0"
     style="fill:#f44336;fill-opacity:1" />
</svg>
