<?xml version="1.0" encoding="UTF-8" standalone="no"?>
<svg
   xmlns:dc="http://purl.org/dc/elements/1.1/"
   xmlns:cc="http://creativecommons.org/ns#"
   xmlns:rdf="http://www.w3.org/1999/02/22-rdf-syntax-ns#"
   xmlns:svg="http://www.w3.org/2000/svg"
   xmlns="http://www.w3.org/2000/svg"
   xmlns:sodipodi="http://sodipodi.sourceforge.net/DTD/sodipodi-0.dtd"
   xmlns:inkscape="http://www.inkscape.org/namespaces/inkscape"
   width="2001.6938"
   height="2001.6938"
   viewBox="0 0 2001.6938 2001.6938"
   id="svg2"
   version="1.1"
   inkscape:version="0.91 r13725"
   sodipodi:docname="insert-in-list.svg">
  <metadata
     id="metadata10">
    <rdf:RDF>
      <cc:Work
         rdf:about="">
        <dc:format>image/svg+xml</dc:format>
        <dc:type
           rdf:resource="http://purl.org/dc/dcmitype/StillImage" />
        <dc:title />
      </cc:Work>
    </rdf:RDF>
  </metadata>
  <defs
     id="defs8" />
  <sodipodi:namedview
     pagecolor="#ffffff"
     bordercolor="#666666"
     borderopacity="1"
     objecttolerance="10"
     gridtolerance="10"
     guidetolerance="10"
     inkscape:pageopacity="0"
     inkscape:pageshadow="2"
     inkscape:window-width="1920"
     inkscape:window-height="1023"
     id="namedview6"
     showgrid="false"
     fit-margin-top="0"
     fit-margin-left="0"
     fit-margin-right="0"
     fit-margin-bottom="0"
     inkscape:zoom="0.18624688"
     inkscape:cx="-768.07866"
     inkscape:cy="514.34976"
     inkscape:window-x="0"
     inkscape:window-y="0"
     inkscape:window-maximized="1"
     inkscape:current-layer="svg2" />
  <path
     d="m 685.6939,1771.694 c 0,53.3332 -18.66667,98.6667 -56,136 -37.33333,37.3332 -82.66667,56 -136,56 -53.33333,0 -98.66667,-18.6668 -136,-56 -37.33333,-37.3333 -56,-82.6668 -56,-136 0,-53.3333 18.66667,-98.6667 56,-136 37.33333,-37.3333 82.66667,-56 136,-56 53.33333,0 98.66667,18.6667 136,56 37.33333,37.3333 56,82.6667 56,136 z"
     id="path4148"
     inkscape:connector-curvature="0"
     sodipodi:nodetypes="sssssssss"
     style="fill:#0288d1;fill-opacity:1" />
  <path
     d="m 685.6939,1259.6939 c 0,53.3333 -18.66667,98.6667 -56,136 -37.33333,37.3333 -82.66667,56 -136,56 -53.33333,0 -98.66667,-18.6667 -136,-56 -37.33333,-37.3333 -56,-82.6667 -56,-136 0,-53.3333 18.66667,-98.6667 56,-136 37.33333,-37.3333 82.66667,-56 136,-56 53.33333,0 98.66667,18.6667 136,56 37.33333,37.3333 56,82.6667 56,136 z"
     id="path4146"
     inkscape:connector-curvature="0"
     sodipodi:nodetypes="sssssssss"
     style="fill:#0288d1;fill-opacity:1" />
  <path
     d="m 2001.6939,1675.6939 0,192.0001 c 0,8.6667 -3.1667,16.1667 -9.5,22.5 -6.3333,6.3332 -13.8333,9.5 -22.5,9.5 l -1124,0 c -8.66667,0 -16.16667,-3.1668 -22.5,-9.5 -6.33333,-6.3333 -9.5,-13.8333 -9.5,-22.5 l 0,-192 c 0,-8.6667 3.16667,-16.1667 9.5,-22.5 6.33333,-6.3333 13.83333,-9.5 22.5,-9.5 l 1124,0 c 8.6667,0 16.1667,3.1667 22.5,9.5 6.3333,6.3333 9.5,13.8333 9.5,22.5 z"
     id="path4144"
     inkscape:connector-curvature="0"
     sodipodi:nodetypes="sssssssssssss"
     style="fill:#b3b3b3;fill-opacity:1" />
  <path
     d="m 2001.6939,1163.6939 0,192 c 0,8.6667 -3.1667,16.1667 -9.5,22.5 -6.3333,6.3333 -13.8333,9.5 -22.5,9.5 l -1124,0 c -8.66667,0 -16.16667,-3.1667 -22.5,-9.5 -6.33333,-6.3333 -9.5,-13.8333 -9.5,-22.5 l 0,-192 c 0,-8.6667 3.16667,-16.1667 9.5,-22.5 6.33333,-6.3333 13.83333,-9.5 22.5,-9.5 l 1124,0 c 8.6667,0 16.1667,3.1667 22.5,9.5 6.3333,6.3333 9.5,13.8333 9.5,22.5 z"
     id="path4140"
     inkscape:connector-curvature="0"
     sodipodi:nodetypes="sssssssssssss"
     style="fill:#b3b3b3;fill-opacity:1" />
  <path
     d="m 1797.6939,651.69385 0,192.00005 c 0,8.6666 -3.1667,16.1666 -9.5,22.5 -6.3333,6.3333 -13.8333,9.5 -22.5,9.5 l -1124,0 c -8.66667,0 -16.16667,-3.1667 -22.5,-9.5 -6.33333,-6.3334 -9.5,-13.8334 -9.5,-22.5 l 0,-192.00005 c 0,-8.66667 3.16667,-16.16667 9.5,-22.5 6.33333,-6.33333 13.83333,-9.5 22.5,-9.5 l 1124,0 c 8.6667,0 16.1667,3.16667 22.5,9.5 6.3333,6.33333 9.5,13.83333 9.5,22.5 z"
     id="path4"
     inkscape:connector-curvature="0"
     sodipodi:nodetypes="sssssssssssss"
     style="fill:#00c853;fill-opacity:1" />
  <path
     id="path4150"
     d="m 685.6939,235.69385 c 0,53.33333 -18.66667,98.66667 -56,136 -37.33333,37.33333 -82.66667,56 -136,56 -53.33333,0 -98.66667,-18.66667 -136,-56 -37.33333,-37.33333 -56,-82.66667 -56,-136 0,-53.33333 18.66667,-98.66667 56,-136 37.33333,-37.33333 82.66667,-56 136,-56 53.33333,0 98.66667,18.66667 136,56 37.33333,37.33333 56,82.66667 56,136 z"
     inkscape:connector-curvature="0"
     sodipodi:nodetypes="sssssssss"
     style="fill:#0288d1;fill-opacity:1" />
  <path
     id="path4152"
     d="m 2001.6939,139.69385 0,192 c 0,8.66667 -3.1667,16.16667 -9.5,22.5 -6.3333,6.33333 -13.8333,9.5 -22.5,9.5 l -1124,0 c -8.66667,0 -16.16667,-3.16667 -22.5,-9.5 -6.33333,-6.33333 -9.5,-13.83333 -9.5,-22.5 l 0,-192 c 0,-8.66667 3.16667,-16.16667 9.5,-22.5 6.33333,-6.33333 13.83333,-9.5 22.5,-9.5 l 1124,0 c 8.6667,0 16.1667,3.16667 22.5,9.5 6.3333,6.33333 9.5,13.83333 9.5,22.5 z"
     inkscape:connector-curvature="0"
     sodipodi:nodetypes="sssssssssssss"
     style="fill:#b3b3b3;fill-opacity:1" />
  <path
     id="path4195"
     d="m 500,745.2771 c 0,12.22833 -4.18931,22.5318 -12.56792,30.9104 L 266.30435,997.3151 c -8.83151,8.3787 -19.13494,12.568 -30.91031,12.568 -11.54893,0 -21.73914,-4.1893 -30.57065,-12.568 l -25.47555,-25.4755 c -8.60507,-8.605 -12.9076,-18.90837 -12.9076,-30.9101 0,-12.00193 4.30253,-22.30543 12.9076,-30.9105 l 99.52445,-99.5244 -239.13044,0 C 27.966483,810.4946 18.399,806.24873 11.0394,797.757 3.6798,789.265 0,779.01817 0,767.0165 l 0,-43.4784 c 0,-12.00181 3.6798,-22.24864 11.0394,-30.74047 7.3596,-8.492 16.927083,-12.738 28.70245,-12.738 l 239.13044,0 -99.52445,-99.864 c -8.60507,-8.15217 -12.9076,-18.34238 -12.9076,-30.57065 0,-12.22827 4.30253,-22.41848 12.9076,-30.57065 l 25.47555,-25.47555 c 8.60507,-8.60507 18.79528,-12.9076 30.57065,-12.9076 12.00181,0 22.30524,4.30253 30.91031,12.9076 L 487.43208,714.70647 C 495.81069,722.63222 500,732.82243 500,745.2771 Z"
     inkscape:connector-curvature="0"
     style="fill:#00c853;fill-opacity:1"
     sodipodi:nodetypes="sscscssscscssssccscssscs" />
</svg>
