<?xml version="1.0" encoding="UTF-8" standalone="no"?>
<svg
   xmlns:dc="http://purl.org/dc/elements/1.1/"
   xmlns:cc="http://creativecommons.org/ns#"
   xmlns:rdf="http://www.w3.org/1999/02/22-rdf-syntax-ns#"
   xmlns:svg="http://www.w3.org/2000/svg"
   xmlns="http://www.w3.org/2000/svg"
   xmlns:sodipodi="http://sodipodi.sourceforge.net/DTD/sodipodi-0.dtd"
   xmlns:inkscape="http://www.inkscape.org/namespaces/inkscape"
   width="1792"
   height="1792"
   viewBox="0 0 1792 1792"
   id="svg4281"
   version="1.1"
   inkscape:version="0.91 r13725"
   sodipodi:docname="pencil.svg">
  <metadata
     id="metadata4289">
    <rdf:RDF>
      <cc:Work
         rdf:about="">
        <dc:format>image/svg+xml</dc:format>
        <dc:type
           rdf:resource="http://purl.org/dc/dcmitype/StillImage" />
        <dc:title></dc:title>
      </cc:Work>
    </rdf:RDF>
  </metadata>
  <defs
     id="defs4287" />
  <sodipodi:namedview
     pagecolor="#ffffff"
     bordercolor="#666666"
     borderopacity="1"
     objecttolerance="10"
     gridtolerance="10"
     guidetolerance="10"
     inkscape:pageopacity="0"
     inkscape:pageshadow="2"
     inkscape:window-width="1920"
     inkscape:window-height="1023"
     id="namedview4285"
     showgrid="false"
     inkscape:zoom="0.13169643"
     inkscape:cx="-15.186441"
     inkscape:cy="896"
     inkscape:window-x="0"
     inkscape:window-y="0"
     inkscape:window-maximized="1"
     inkscape:current-layer="svg4281" />
  <path
     d="M 960 416 L 128 1248 L 128 1664 L 544 1664 L 1376 832 L 960 416 z M 992 586 C 1006.6667 586 1014 593.33333 1014 608 C 1014 614.66667 1011.6667 620.33333 1007 625 L 465 1167 C 460.33333 1171.6667 454.66667 1174 448 1174 C 433.33333 1174 426 1166.6667 426 1152 C 426 1145.3333 428.33333 1139.6667 433 1135 L 975 593 C 979.66667 588.33333 985.33333 586 992 586 z M 347 1210 L 582 1445 L 491 1536 L 384 1536 L 384 1408 L 256 1408 L 256 1301 L 347 1210 z "
     id="path5454"
     style="fill:#0288d1;fill-opacity:1" />
  <path
     d="m 1643,512 q 0,53 -37,90 L 1440,768 1024,352 1190,187 q 36,-38 90,-38 53,0 91,38 l 235,234 q 37,39 37,91 z"
     id="path4283"
     style="fill:#f44336;fill-opacity:1" />
</svg>
