<?xml version="1.0" encoding="UTF-8" standalone="no"?>
<svg
   xmlns:dc="http://purl.org/dc/elements/1.1/"
   xmlns:cc="http://creativecommons.org/ns#"
   xmlns:rdf="http://www.w3.org/1999/02/22-rdf-syntax-ns#"
   xmlns:svg="http://www.w3.org/2000/svg"
   xmlns="http://www.w3.org/2000/svg"
   xmlns:sodipodi="http://sodipodi.sourceforge.net/DTD/sodipodi-0.dtd"
   xmlns:inkscape="http://www.inkscape.org/namespaces/inkscape"
   version="1.1"
   id="svg2"
   viewBox="0 0 1522.3806 1522.3806"
   height="1522.3806"
   width="1522.3806"
   inkscape:version="0.91 r13725"
   sodipodi:docname="remove-translation.svg">
  <sodipodi:namedview
     pagecolor="#ffffff"
     bordercolor="#666666"
     borderopacity="1"
     objecttolerance="10"
     gridtolerance="10"
     guidetolerance="10"
     inkscape:pageopacity="0"
     inkscape:pageshadow="2"
     inkscape:window-width="1920"
     inkscape:window-height="1023"
     id="namedview10"
     showgrid="false"
     inkscape:zoom="0.43846381"
     inkscape:cx="810.66532"
     inkscape:cy="819.87726"
     inkscape:window-x="0"
     inkscape:window-y="0"
     inkscape:window-maximized="1"
     inkscape:current-layer="svg2" />
  <metadata
     id="metadata10">
    <rdf:RDF>
      <cc:Work
         rdf:about="">
        <dc:format>image/svg+xml</dc:format>
        <dc:type
           rdf:resource="http://purl.org/dc/dcmitype/StillImage" />
        <dc:title></dc:title>
      </cc:Work>
    </rdf:RDF>
  </metadata>
  <defs
     id="defs8" />
  <path
     style="fill:#0288d1;fill-opacity:1;stroke:none;stroke-width:1.03006423;stroke-linecap:round;stroke-linejoin:round;stroke-miterlimit:4;stroke-dasharray:none;stroke-opacity:1"
     d="M 1522.3806,194.70073 761.19029,-0.8247 l 0,914.953 761.19031,195.5254 z"
     id="path4176"
     inkscape:connector-curvature="0" />
  <path
     style="fill:#ffffff"
     id="path4180"
     d="m 1090.4087,215.85522 -216.00001,536 102,31 45.00001,-110 211,65 37,134.99998 102,31 -181,-656.99998 -100,-31 z m 46,174 63,227 -139,-42 76,-185 z"
     inkscape:connector-curvature="0" />
  <path
     id="rect4173"
     d="M 0,194.70073 761.19029,-0.8247 l 0,914.953 L 0,1109.6537 Z"
     style="fill:#b3b3b3;fill-opacity:1;stroke:none;stroke-width:1.03006423;stroke-linecap:round;stroke-linejoin:round;stroke-miterlimit:4;stroke-dasharray:none;stroke-opacity:1"
     inkscape:connector-curvature="0" />
  <path
     style="fill:#ffffff;stroke:#ffffff"
     id="path4186"
     d="m 417.40869,243.85522 c -12.66667,1.33333 -31,6 -55,14 -32,9.33333 -51.33333,14.66667 -58,16 -6.66667,1.33333 -15.5,1.33333 -26.5,0 -11,-1.33333 -17.5,-3 -19.5,-5 l -1,3 c 2.66667,17.33333 8.66667,31 18,41 15.33333,15.33333 31.66667,24 49,26 20,0 40,-4 60,-12 25.33333,-10 42,-22.66667 50,-38 4.66667,-8.66667 6,-18 4,-28 -2.66667,-11.33333 -9.66667,-17 -21,-17 z m 134.125,80.34375 c -0.41667,0.0208 -0.79167,0.0729 -1.125,0.15625 -1.33333,0.33333 -6.16667,2.16667 -14.5,5.5 -8.33333,3.33333 -15.5,6 -21.5,8 -7.33333,2.66667 -22,9.83333 -44,21.5 -22,11.66667 -36.33333,18.16667 -43,19.5 -1.33333,0 -35.33333,11.66667 -102,35 -31.33333,10.66667 -66.33333,21.33333 -105,32 -7.33333,2 -17.16667,4 -29.5,6 -12.33333,2 -20.5,3.66667 -24.5,5 0.66667,11.33333 2.33333,19 5,23 6.66667,11.33333 16,18.33333 28,21 16,4.66667 31.66667,4.66667 47,0 17.33333,-3.33333 27.66667,-8.33333 31,-15 0.66667,-0.66667 1,-3.83333 1,-9.5 0,-5.66667 0.66667,-9.16667 2,-10.5 1.33333,-0.66667 7,-2.33333 17,-5 10,-2.66667 21.5,-5.83333 34.5,-9.5 13,-3.66667 22.16667,-6.16667 27.5,-7.5 68,-22.66667 104.66667,-33.66667 110,-33 -1.33333,6 -13.33333,31.83333 -36,77.5 -22.66667,45.66667 -39.66667,78.5 -51,98.5 -9.33333,18 -35.5,57.33333 -78.5,118 -43,60.6667 -71.5,98.99998 -85.5,114.99998 -50.66667,58.6667 -78,89.3333 -82,92 2,1.3333 8.16667,1.3333 18.5,0 10.33333,-1.3333 16.83333,-2.6667 19.5,-4 16,-10 51,-46.6667 105,-109.99998 44.66667,-52 89.33333,-112.3333 134,-181 2.66667,1.33333 15.33333,10.83333 38,28.5 22.66667,17.66667 36.33333,28.1667 41,31.5 28.66667,19.3333 57.66667,35.6667 87,49 l 20,9 c 13.33333,5.3333 23.83333,9.1667 31.5,11.5 7.66667,2.3333 11.83333,2.5 12.5,0.5 1.33333,-4 -0.16667,-14.1667 -4.5,-30.5 -4.33333,-16.3333 -7.83333,-24.8333 -10.5,-25.5 -3.33333,-1.3333 -25.83333,-10.6667 -67.5,-28 -41.66667,-17.33333 -66.5,-28 -74.5,-32 l -64,-28 c 34.66667,-54 60.33333,-97.66667 77,-131 2,-3.33333 7.66667,-14.5 17,-33.5 9.33333,-19 18.16667,-36.83333 26.5,-53.5 8.33333,-16.66667 12.5,-25.66667 12.5,-27 2,-14 2.33333,-25 1,-33 -2,-0.5 -3.625,-0.71875 -4.875,-0.65625 z"
     inkscape:connector-curvature="0" />
  <circle
     style="fill:#ffffff;fill-opacity:1;stroke:none;stroke-width:1.29798198;stroke-linecap:round;stroke-linejoin:round;stroke-miterlimit:4;stroke-dasharray:none;stroke-opacity:1"
     id="path5519"
     cx="760.02295"
     cy="1149.4437"
     r="311.68875" />
  <path
     id="path5510"
     d="m 946.8539,1257.2452 q 0,-12.6952 -9.27741,-21.9725 l -88.37885,-88.379 88.37885,-88.3789 q 9.27741,-9.2774 9.27741,-21.9726 0,-13.1837 -9.27741,-22.461 l -43.94531,-43.94523 q -9.27729,-9.2775 -22.46088,-9.2775 -12.69532,0 -21.97266,9.2775 l -88.37892,88.37883 -88.37891,-88.37883 q -9.27733,-9.2775 -21.97265,-9.2775 -13.18359,0 -22.46092,9.2775 l -43.94531,43.94523 q -9.27734,9.2773 -9.27734,22.461 0,12.6952 9.27734,21.9726 l 88.37888,88.3789 -88.37888,88.379 q -9.27734,9.2773 -9.27734,21.9725 0,13.1837 9.27734,22.461 l 43.94531,43.9453 q 9.27733,9.2775 22.46092,9.2775 12.69532,0 21.97265,-9.2775 l 88.37891,-88.3788 88.37892,88.3788 q 9.27734,9.2775 21.97266,9.2775 13.18359,0 22.46088,-9.2775 l 43.94531,-43.9453 q 9.27741,-9.2773 9.27741,-22.461 z m 188.9649,-110.3515 q 0,102.0507 -50.2931,188.2325 -50.2929,86.1815 -136.47458,136.4745 -86.18159,50.293 -188.2324,50.293 -102.05079,0 -188.2324,-50.293 -86.18165,-50.293 -136.47459,-136.4745 -50.29297,-86.1818 -50.29297,-188.2325 0,-102.0507 50.29297,-188.23248 50.29294,-86.18154 136.47459,-136.47443 86.18161,-50.29307 188.2324,-50.29307 102.05081,0 188.2324,50.29307 86.18168,50.29289 136.47458,136.47443 50.2931,86.18178 50.2931,188.23248 z"
     inkscape:connector-curvature="0"
     style="fill:#f44336;fill-opacity:1" />
</svg>
