<?xml version="1.0" encoding="UTF-8" standalone="no"?>
<svg
   xmlns:dc="http://purl.org/dc/elements/1.1/"
   xmlns:cc="http://creativecommons.org/ns#"
   xmlns:rdf="http://www.w3.org/1999/02/22-rdf-syntax-ns#"
   xmlns:svg="http://www.w3.org/2000/svg"
   xmlns="http://www.w3.org/2000/svg"
   version="1.1"
   id="svg2"
   viewBox="0 0 280.69965 215.0009"
   height="215.0009"
   width="280.69965">
  <defs
     id="defs4" />
  <metadata
     id="metadata7">
    <rdf:RDF>
      <cc:Work
         rdf:about="">
        <dc:format>image/svg+xml</dc:format>
        <dc:type
           rdf:resource="http://purl.org/dc/dcmitype/StillImage" />
        <dc:title></dc:title>
      </cc:Work>
    </rdf:RDF>
  </metadata>
  <g
     transform="translate(562.84983,-1942.3613)"
     id="layer1">
    <path
       id="path3346"
       d="m -517.15039,1942.3613 -21.25586,100 38.40625,0 28.40625,0 c 18.33333,0 34.948,6.564 45.11133,19.4707 10.16333,12.9068 12.78502,30.5289 8.93359,48.6485 -0.1935,0.9103 -0.41222,1.8083 -0.63476,2.705 -3.24619,26.7308 12.32379,44.1758 40.33398,44.1758 l 50,0 21.25586,-100 -46.40625,0 -20.40625,0 c -18.33333,0 -34.948,-6.562 -45.11133,-19.4687 -10.16333,-12.9068 -12.78502,-30.5289 -8.93359,-48.6485 0.19894,-0.9359 0.42271,-1.8596 0.65234,-2.7812 3.21098,-26.692 -12.36536,-44.1016 -40.35156,-44.1016 z"
       style="fill:#0288D1;fill-rule:evenodd;stroke:none;stroke-width:1px;stroke-linecap:butt;stroke-linejoin:miter;stroke-opacity:1" />
    <path
       style="fill:#0288D1;fill-opacity:0.50196081;fill-rule:evenodd;stroke:none;stroke-width:1px;stroke-linecap:butt;stroke-linejoin:miter;stroke-opacity:1"
       d="m -541.59417,2057.3622 70,0 c 30,0 45.74886,20 39.37217,50 -6.3767,30 -30.62783,50 -60.62783,50 l -70,0 z"
       id="path3348" />
    <path
       id="path3352"
       d="m -282.15017,1942.3622 -70,0 c -30,0 -54.25113,20 -60.62783,50 -6.37669,30 9.37217,50 39.37217,50 l 70,0 z"
       style="fill:#0288D1;fill-opacity:0.50196081;fill-rule:evenodd;stroke:none;stroke-width:1px;stroke-linecap:butt;stroke-linejoin:miter;stroke-opacity:1" />
  </g>
</svg>
